<svg viewBox="0 0 120 120" fill="none" xmlns="http://www.w3.org/2000/svg">
  <defs>
    <linearGradient id="primaryGradient" x1="0%" y1="0%" x2="100%" y2="100%">
      <stop offset="0%" stop-color="#06D6A0" />
      <stop offset="30%" stop-color="#4ECDC4" />
      <stop offset="70%" stop-color="#45B7D1" />
      <stop offset="100%" stop-color="#2E86AB" />
    </linearGradient>
    <radialGradient id="innerGlow" cx="50%" cy="40%" r="60%">
      <stop offset="0%" stop-color="rgba(255,255,255,0.8)" />
      <stop offset="70%" stop-color="rgba(255,255,255,0.2)" />
      <stop offset="100%" stop-color="rgba(255,255,255,0)" />
    </radialGradient>
  </defs>
  
  <!-- Heart shape -->
  <path d="M60 95 C35 78, 15 58, 15 35 C15 18, 28 8, 45 8 C52 8, 58 12, 60 18 C62 12, 68 8, 75 8 C92 8, 105 18, 105 35 C105 58, 85 78, 60 95 Z" fill="url(#primaryGradient)" />
  
  <!-- Inner highlight -->
  <path d="M60 85 C40 70, 25 52, 25 35 C25 25, 33 18, 45 18 C52 18, 58 22, 60 28 C62 22, 68 18, 75 18 C87 18, 95 25, 95 35 C95 52, 80 70, 60 85 Z" fill="url(#innerGlow)" />
  
  <!-- Leaf symbol -->
  <path d="M60 35 Q60 50, 60 70" stroke="rgba(255,255,255,0.9)" stroke-width="3" stroke-linecap="round" fill="none" />
  <path d="M60 45 Q48 40, 42 48 Q48 52, 60 50" fill="rgba(255,255,255,0.7)" />
  <path d="M60 45 Q72 40, 78 48 Q72 52, 60 50" fill="rgba(255,255,255,0.7)" />
  
  <!-- Central glow -->
  <circle cx="60" cy="45" r="3" fill="rgba(255,255,255,0.9)" />
</svg>